<svg xmlns="http://www.w3.org/2000/svg" width="140" height="140" viewBox="0 0 140 140">
  <defs>
    <!-- 青海波 (Seigaiha) 無縫 tile — 2x2 交錯半圓，100% 平鋪無縫 -->
    <pattern id="seigaiha-tile" x="0" y="0" width="70" height="70" patternUnits="userSpaceOnUse">
      <path d="M35 42 A 28 28 0 0 1 7 42" fill="none" stroke="#6b7db3" stroke-width="1.6" opacity="0.30"/>
      <path d="M35 42 A 22 22 0 0 1 13 42" fill="none" stroke="#6b7db3" stroke-width="1.3" opacity="0.24"/>
      <path d="M35 42 A 16 16 0 0 1 19 42" fill="none" stroke="#6b7db3" stroke-width="1.1" opacity="0.20"/>
      <path d="M35 42 A 10 10 0 0 1 25 42" fill="none" stroke="#6b7db3" stroke-width="0.9" opacity="0.16"/>
      <circle cx="35" cy="42" r="1.5" fill="#8c9ecf" opacity="0.25"/>
      <path d="M70 7 A 28 28 0 0 1 42 7" fill="none" stroke="#6b7db3" stroke-width="1.6" opacity="0.30"/>
      <path d="M70 7 A 22 22 0 0 1 48 7" fill="none" stroke="#6b7db3" stroke-width="1.3" opacity="0.20"/>
      <path d="M70 7 A 16 16 0 0 1 54 7" fill="none" stroke="#6b7db3" stroke-width="1.1" opacity="0.15"/>
      <path d="M70 7 A 10 10 0 0 1 60 7" fill="none" stroke="#6b7db3" stroke-width="0.9" opacity="0.12"/>
      <circle cx="70" cy="7" r="1.5" fill="#8c9ecf" opacity="0.25"/>
      <path d="M0 7 A 28 28 0 0 1 -28 7" fill="none" stroke="#6b7db3" stroke-width="1.6" opacity="0.30"/>
      <path d="M0 7 A 22 22 0 0 1 -22 7" fill="none" stroke="#6b7db3" stroke-width="1.3" opacity="0.20"/>
      <path d="M0 7 A 16 16 0 0 1 -16 7" fill="none" stroke="#6b7db3" stroke-width="1.1" opacity="0.15"/>
      <path d="M0 7 A 10 10 0 0 1 -10 7" fill="none" stroke="#6b7db3" stroke-width="0.9" opacity="0.12"/>
    </pattern>
  </defs>
  <rect width="140" height="140" fill="#12162f"/>
  <rect width="140" height="140" fill="url(#seigaiha-tile)"/>
</svg>